<svg xmlns="http://www.w3.org/2000/svg" xmlns:xlink="http://www.w3.org/1999/xlink" viewBox="0 0 1920 800"><defs><style>.cls-1{fill:url(#linear-gradient);}.cls-2{fill:url(#linear-gradient-2);}</style><linearGradient id="linear-gradient" x1="965.35" y1="1691.65" x2="965.35" y2="480.02" gradientTransform="matrix(1, 0, 0, 0.77, 0.04, 83.32)" gradientUnits="userSpaceOnUse"><stop offset="0" stop-color="#fff"/><stop offset="0.18" stop-color="#f7fcfe"/><stop offset="0.59" stop-color="#ebf6fd"/><stop offset="1" stop-color="#e7f4fc"/></linearGradient><linearGradient id="linear-gradient-2" x1="-1.81" y1="247.3" x2="1920.48" y2="247.3" gradientUnits="userSpaceOnUse"><stop offset="0" stop-color="#d98828"/><stop offset="0.3" stop-color="#d98b28"/><stop offset="0.54" stop-color="#d99527"/><stop offset="0.76" stop-color="#daa626"/><stop offset="0.96" stop-color="#dbbd24"/><stop offset="1" stop-color="#dbc224"/></linearGradient></defs><title>bg-header</title><g id="Header"><path class="cls-1" d="M1925.43,495.57s-242-103.82-530.89,8.93c-163.37,63.77-130.78,135.64-312.09,107.16C952.27,591.22,870.16,566,730,633.19c-180.09,86.34-290.62,80-408.46,55.34S5.2,721.24,5.2,721.24l1.32,613s169.93,87.91,421.26-7c171.21-64.64,330.49,77.55,557.87,52.75s128.1-145.5,310-181.25,628.47,120.45,628.47,120.45Z"/><path class="cls-2" d="M1920.48,494s-458.55,26.25-704.84-177.16-492.59-133-492.59-133S455,233.44,179.56,118c0,0-89.26-43.3-181.37-31.37V-.5L1920.48,1.89Z"/></g></svg>