<svg xmlns="http://www.w3.org/2000/svg" viewBox="0 0 391 335"><defs><style>.cls-1{fill:#d78428;}.cls-10,.cls-13,.cls-15,.cls-17,.cls-2,.cls-22,.cls-23,.cls-4,.cls-6,.cls-8{fill:none;stroke-width:2.79px;}.cls-2{stroke:#d56c28;}.cls-10,.cls-13,.cls-15,.cls-17,.cls-2,.cls-22,.cls-23,.cls-4,.cls-6{stroke-miterlimit:10;}.cls-3{fill:#d46a28;}.cls-4{stroke:#c36323;}.cls-5{fill:#fff6cf;}.cls-6{stroke:#dcd393;}.cls-7{fill:gold;}.cls-23,.cls-8{stroke:#fbae17;}.cls-8{stroke-linecap:round;stroke-linejoin:round;}.cls-9{fill:#c4242b;}.cls-10{stroke:#9e1519;}.cls-11{fill:#fff;}.cls-12{fill:#ddbd21;}.cls-13{stroke:#d99b26;}.cls-14{fill:#fbc904;}.cls-15{stroke:#d99a26;}.cls-16{fill:#f1f1f2;}.cls-17{stroke:#c6c6c6;}.cls-18{fill:#643e1c;}.cls-19{fill:#ededed;}.cls-20{fill:#b62f38;}.cls-21{fill:#dba725;}.cls-22{stroke:#d67e28;}</style></defs><title>bg-vote</title><g id="Berita_Terbaru" data-name="Berita Terbaru"><g id="Layer_3" data-name="Layer 3"><path class="cls-1" d="M142.83,159.86c-15.4-8.85-46.07-31-43.35-65.62a2.21,2.21,0,0,1,.1-.5c.49-1.51,2.59-11.08-17.17-21.59C62.31,61.47,21.29,25.72,11.54,5.56a2.26,2.26,0,0,0-4.09.07c-5,11-9.8,43.59,65.58,92.91L6.8,53.17a2.26,2.26,0,0,0-3.41,2.61c4,11.42,15.34,36,43,51L12.2,85.59a2.26,2.26,0,0,0-3.34,2.62c3.17,9.52,12.67,29.08,39.32,42.07L16.64,114.91a2.26,2.26,0,0,0-3.09,2.89c3.72,8.95,14.66,27.24,44.37,38L30.36,145.28a2.26,2.26,0,0,0-2.95,2.84c2.19,6.43,8.31,18.51,24.73,26.5a2.26,2.26,0,0,1-1,4.31,2.26,2.26,0,0,0-1.85,3.55C57,193.41,83.12,225.15,121.56,211c23.05-8.49,30.58-18.83,32.31-27.72a22.31,22.31,0,0,0-11-23.41"/><path class="cls-2" d="M142.83,159.86c-15.4-8.85-46.07-31-43.35-65.62a2.21,2.21,0,0,1,.1-.5c.49-1.51,2.59-11.08-17.17-21.59C62.31,61.47,21.29,25.72,11.54,5.56a2.26,2.26,0,0,0-4.09.07c-5,11-9.8,43.59,65.58,92.91L6.8,53.17a2.26,2.26,0,0,0-3.41,2.61c4,11.42,15.34,36,43,51L12.2,85.59a2.26,2.26,0,0,0-3.34,2.62c3.17,9.52,12.67,29.08,39.32,42.07L16.64,114.91a2.26,2.26,0,0,0-3.09,2.89c3.72,8.95,14.66,27.24,44.37,38L30.36,145.28a2.26,2.26,0,0,0-2.95,2.84c2.19,6.43,8.31,18.51,24.73,26.5a2.26,2.26,0,0,1-1,4.31,2.26,2.26,0,0,0-1.85,3.55C57,193.41,83.12,225.15,121.56,211c23.05-8.49,30.58-18.83,32.31-27.72A22.31,22.31,0,0,0,142.83,159.86Z"/><path class="cls-1" d="M251.17,164.08c15.4-8.85,46.07-31,43.35-65.62a2.21,2.21,0,0,0-.1-.5c-.49-1.51-2.59-11.08,17.17-21.59,20.1-10.68,61.11-46.43,70.86-66.59a2.26,2.26,0,0,1,4.09.07c5,11,9.8,43.59-65.58,92.91L387.2,57.38A2.26,2.26,0,0,1,390.61,60c-4,11.42-15.34,36-43,51L381.8,89.8a2.26,2.26,0,0,1,3.34,2.62c-3.17,9.52-12.67,29.08-39.32,42.07l31.53-15.37a2.26,2.26,0,0,1,3.09,2.89c-3.72,8.95-14.66,27.24-44.37,38l27.57-10.51a2.26,2.26,0,0,1,2.95,2.84c-2.19,6.43-8.31,18.51-24.73,26.5a2.26,2.26,0,0,0,1,4.3,2.26,2.26,0,0,1,1.85,3.55c-7.64,10.94-33.8,42.68-72.24,28.52-23.05-8.49-30.58-18.83-32.31-27.72a22.31,22.31,0,0,1,11-23.41"/><path class="cls-2" d="M251.17,164.08c15.4-8.85,46.07-31,43.35-65.62a2.21,2.21,0,0,0-.1-.5c-.49-1.51-2.59-11.08,17.17-21.59,20.1-10.68,61.11-46.43,70.86-66.59a2.26,2.26,0,0,1,4.09.07c5,11,9.8,43.59-65.58,92.91L387.2,57.38A2.26,2.26,0,0,1,390.61,60c-4,11.42-15.34,36-43,51L381.8,89.8a2.26,2.26,0,0,1,3.34,2.62c-3.17,9.52-12.67,29.08-39.32,42.07l31.53-15.37a2.26,2.26,0,0,1,3.09,2.89c-3.72,8.95-14.66,27.24-44.37,38l27.57-10.51a2.26,2.26,0,0,1,2.95,2.84c-2.19,6.43-8.31,18.51-24.73,26.5a2.26,2.26,0,0,0,1,4.3,2.26,2.26,0,0,1,1.85,3.55c-7.64,10.94-33.8,42.68-72.24,28.52-23.05-8.49-30.58-18.83-32.31-27.72A22.31,22.31,0,0,1,251.17,164.08Z"/><path class="cls-3" d="M155.19,204.29s15.24,10.83,9.63,20.46-24.27,38.11-19.66,51.15c0,0,6.82,7.22,22.46-22.87,0,0-9.43,25.68,5.42,41.72,0,0,12.33-11.19,11.68-33.17,0,0-5.36,27.83,14.1,39.66,0,0,16.31-8.16,15.14-38,0,0,3.61,26.48,10.43,31.69,0,0,12.23-14.84,6.22-41.72,0,0,5,18.25,18.25,23.47,0,0,5-19.05-16-55,0,0-5-4.21,9.23-19.26s-10-54.26-44.33-50.35S144,179.72,155.19,204.29"/><path class="cls-4" d="M155.19,204.29s15.24,10.83,9.63,20.46-24.27,38.11-19.66,51.15c0,0,6.82,7.22,22.46-22.87,0,0-9.43,25.68,5.42,41.72,0,0,12.33-11.19,11.68-33.17,0,0-5.36,27.83,14.1,39.66,0,0,16.31-8.16,15.14-38,0,0,3.61,26.48,10.43,31.69,0,0,12.23-14.84,6.22-41.72,0,0,5,18.25,18.25,23.47,0,0,5-19.05-16-55,0,0-5-4.21,9.23-19.26s-10-54.26-44.33-50.35S144,179.72,155.19,204.29Z"/><path class="cls-1" d="M144.06,149.18s3.61,6.46-1.2,16.16-26.48,80.81,35.5,108.29,108.92-58.72,82.44-107.75c0,0-6-6.64-2.21-17.78,0,0,9.83-24.42-15-35s-60.58-10.24-79.83-2.16-30.29,20.65-19.66,38.25"/><path class="cls-2" d="M144.06,149.18s3.61,6.46-1.2,16.16-26.48,80.81,35.5,108.29,108.92-58.72,82.44-107.75c0,0-6-6.64-2.21-17.78,0,0,9.83-24.42-15-35s-60.58-10.24-79.83-2.16S133.42,131.58,144.06,149.18Z"/><path class="cls-5" d="M235.08,252.83c-5.59,11.74-13,18.92-26.35,21.9-5.88,1.31-18.71-.16-25.41-2.85-24.91-10-28.7-49.27-19.83-73.4,11.5-31.27,53.43-29.76,69.37-11.38,12.85,14.83,12.32,44.53,2.22,65.73"/><path class="cls-6" d="M235.08,252.83c-5.59,11.74-13,18.92-26.35,21.9-5.88,1.31-18.71-.16-25.41-2.85-24.91-10-28.7-49.27-19.83-73.4,11.5-31.27,53.43-29.76,69.37-11.38C245.71,201.93,245.17,231.63,235.08,252.83Z"/><path class="cls-7" d="M173.43,270.37a45.21,45.21,0,0,0,11.75,4.21l-6.62,24.92s10.62,7.87,11.72,13.42c0,0-11.6-3.45-14.17-5.22,0,0-22.43,9.9-27.34,15.46a36.37,36.37,0,0,1,17.4-20.46,38.14,38.14,0,0,0-20.3,2s12.46-7.44,26.1-6.38c0,0,1.26-25,1.47-27.89"/><path class="cls-8" d="M173.43,270.37a45.21,45.21,0,0,0,11.75,4.21l-6.62,24.92s10.62,7.87,11.72,13.42c0,0-11.6-3.45-14.17-5.22,0,0-22.43,9.9-27.34,15.46a36.37,36.37,0,0,1,17.4-20.46,38.14,38.14,0,0,0-20.3,2s12.46-7.44,26.1-6.38C172,298.25,173.23,273.27,173.43,270.37Z"/><path class="cls-7" d="M225.28,271.7a45.18,45.18,0,0,1-11.75,4.21l6.62,24.92s-10.62,7.87-11.71,13.42c0,0,11.59-3.45,14.16-5.22,0,0,22.43,9.9,27.34,15.46A36.36,36.36,0,0,0,232.55,304a38.14,38.14,0,0,1,20.3,2s-12.46-7.43-26.1-6.38c0,0-1.26-25-1.47-27.89"/><path class="cls-8" d="M225.28,271.7a45.18,45.18,0,0,1-11.75,4.21l6.62,24.92s-10.62,7.87-11.71,13.42c0,0,11.59-3.45,14.16-5.22,0,0,22.43,9.9,27.34,15.46A36.36,36.36,0,0,0,232.55,304a38.14,38.14,0,0,1,20.3,2s-12.46-7.43-26.1-6.38C226.75,299.59,225.49,274.61,225.28,271.7Z"/><path class="cls-9" d="M145.32,150.71s-3.41,7.42-3.11,12.23c0,0,26.38,34,58.87,42.12,0,0,36.51-13.84,61.18-45.13,0,0-.9-8.42-4.81-9.93,0,0-45.46,41-57.63,40.55,0,0-17.25-4.95-54.49-39.85"/><path class="cls-10" d="M145.32,150.71s-3.41,7.42-3.11,12.23c0,0,26.38,34,58.87,42.12,0,0,36.51-13.84,61.18-45.13,0,0-.9-8.42-4.81-9.93,0,0-45.46,41-57.63,40.55C199.81,190.56,182.56,185.61,145.32,150.71Z"/><path class="cls-11" d="M142.41,157.74s19.15,27.27,58.07,42.31c0,0,34.78-13.11,61.25-44.6,0,0-1.65-4.74-2.41-5.68,0,0-18.32,29.42-59,46.13,0,0-26.88-9.49-56.3-40.78l-.6-.86a30,30,0,0,0-1,3.48"/><path class="cls-12" d="M228.25,210.06a28,28,0,1,1-28-28,28,28,0,0,1,28,28"/><circle class="cls-13" cx="200.28" cy="210.06" r="27.97"/><path class="cls-14" d="M225.12,210.06a24.86,24.86,0,1,1-24.86-24.86,24.86,24.86,0,0,1,24.86,24.86"/><circle class="cls-15" cx="200.26" cy="210.06" r="24.86"/><path class="cls-1" d="M210.3,198.5a9.43,9.43,0,0,0-3.26-.91,31.18,31.18,0,0,0-8.54.39.6.6,0,0,0-.57.57c-.14.83-.31,1.65-.46,2.48L196,208.85l-2.44,13c0,.19-.05.39-.08.62l5.95,0L201,214c.32,0,.61,0,.89,0a16.17,16.17,0,0,0,3.93-.27,10.93,10.93,0,0,0,4.5-1.87,8.8,8.8,0,0,0,3.64-7.44,6.21,6.21,0,0,0-3.7-5.88m-6.64,10.58c-.54,0-1.08,0-1.69-.08l1.23-6.51c.06-.05.08-.09.11-.1a5.79,5.79,0,0,1,2.88.06,2.18,2.18,0,0,1,1.63,2,4.16,4.16,0,0,1-4.17,4.6"/><path class="cls-14" d="M186.88,224.64S197.44,202,221,198.33c0,0-18.39,3.58-31.78,26.41h-2.42Z"/><path class="cls-1" d="M195.28,212.75l-.75,4.22s-5,6.35-5.83,9.68H186s2-5.77,9.32-13.9"/><path class="cls-1" d="M202.49,206.21l-.61,2.77s5.3-4.34,6-4.5a2.14,2.14,0,0,0-.52-1.38s-4.27,2.58-4.83,3.11"/><path class="cls-1" d="M212.79,200.52a3.44,3.44,0,0,1,.49.72s5.15-2.48,7.67-2.9a40.67,40.67,0,0,0-8.16,2.18"/><path class="cls-3" d="M93,38.07s-.58,18,15.44,32.62c14.46,13.17,42.71,23.16,92.27,21.75C251,91,277.83,81,291.61,67.73a47.19,47.19,0,0,0,14.61-31.81S219.2,92.12,93,38.07"/><path class="cls-4" d="M93,38.07s-.58,18,15.44,32.62c14.46,13.17,42.71,23.16,92.27,21.75C251,91,277.83,81,291.61,67.73a47.19,47.19,0,0,0,14.61-31.81S219.2,92.12,93,38.07Z"/><path class="cls-1" d="M270.74,80.48a66.58,66.58,0,0,0-38.38-35.75A101.75,101.75,0,0,0,196.23,39c-39.27.73-69.09,22.79-76.36,65.7s41.82,58.55,41.82,58.55,45.82,14.18,86.18-4.36c32.48-14.93,36.55-47.75,22.87-78.38"/><path class="cls-2" d="M270.74,80.48a66.58,66.58,0,0,0-38.38-35.75A101.75,101.75,0,0,0,196.23,39c-39.27.73-69.09,22.79-76.36,65.7s41.82,58.55,41.82,58.55,45.82,14.18,86.18-4.36C280.35,143.94,284.42,111.12,270.74,80.48Z"/><path class="cls-5" d="M200.11,57.4s-40.83-12.86-64.67,19.85a55.63,55.63,0,0,0-7.22,13.8c-1.28,3.52-3.13,7.87-4.68,8.83,0,0,4.52,1.84,12.15-3.32,0,0-10.27,18.41-17.53,25.67,0,0,6.16,4,13.34-1.81,0,0-4.11,13.81-10.26,16.82,0,0,3.53,5.46,13.26,2.41,0,0-.36,8.71-6.23,11,0,0,6.42,2.87,14.74-.5,0,0,2.47,7.31,16.35,11.43s63.17,17.14,94.53-9.12c0,0,3.93-3.21,5-5.07,0,0,8,4.24,14.17.06,0,0-8.35-3.3-8.06-9.61,0,0,12.32,3.94,14.87,1,0,0-10-10.67-9.22-16.68,0,0,6.22-.09,12.05-.79,0,0-13.82-18.77-17.77-24,0,0,7.52,2.87,12.52,1.39,0,0-6.87-6.28-9.32-11.63-1.1-2.39-24.36-42.27-68-29.75"/><path class="cls-6" d="M200.11,57.4s-40.83-12.86-64.67,19.85a55.63,55.63,0,0,0-7.22,13.8c-1.28,3.52-3.13,7.87-4.68,8.83,0,0,4.52,1.84,12.15-3.32,0,0-10.27,18.41-17.53,25.67,0,0,6.16,4,13.34-1.81,0,0-4.11,13.81-10.26,16.82,0,0,3.53,5.46,13.26,2.41,0,0-.36,8.71-6.23,11,0,0,6.42,2.87,14.74-.5,0,0,2.47,7.31,16.35,11.43s63.17,17.14,94.53-9.12c0,0,3.93-3.21,5-5.07,0,0,8,4.24,14.17.06,0,0-8.35-3.3-8.06-9.61,0,0,12.32,3.94,14.87,1,0,0-10-10.67-9.22-16.68,0,0,6.22-.09,12.05-.79,0,0-13.82-18.77-17.77-24,0,0,7.52,2.87,12.52,1.39,0,0-6.87-6.28-9.32-11.63C267,84.75,243.76,44.88,200.11,57.4Z"/><path class="cls-16" d="M193.76,85.63c0,13.14-13.18,25.57-28.29,25.57S140,101.12,140,88,152.29,64.2,167.4,64.2s26.36,8.29,26.36,21.43"/><path class="cls-17" d="M193.76,85.63c0,13.14-13.18,25.57-28.29,25.57S140,101.12,140,88,152.29,64.2,167.4,64.2,193.76,72.49,193.76,85.63Z"/><path class="cls-18" d="M181.51,81c2.65,6.84-.92,15.67-7.88,18.37s-13.75-.71-16.4-7.56A13.41,13.41,0,0,1,165,74.51c7-2.7,13.82-.38,16.47,6.46"/><path class="cls-11" d="M168,78.23a3.22,3.22,0,0,1-1.73,4,2.7,2.7,0,0,1-3.59-1.66,2.94,2.94,0,0,1,1.71-3.79A2.62,2.62,0,0,1,168,78.23"/><path class="cls-19" d="M207.71,85.63c0,13.14,13.18,25.57,28.29,25.57S261.43,101.12,261.43,88,249.18,64.2,234.07,64.2s-26.36,8.29-26.36,21.43"/><path class="cls-17" d="M207.71,85.63c0,13.14,13.18,25.57,28.29,25.57S261.43,101.12,261.43,88,249.18,64.2,234.07,64.2,207.71,72.49,207.71,85.63Z"/><path class="cls-18" d="M220,81c-2.65,6.84.92,15.67,7.88,18.37s13.75-.71,16.4-7.56a13.41,13.41,0,0,0-7.82-17.27c-7-2.7-13.82-.38-16.47,6.46"/><path class="cls-11" d="M233.45,78.23a3.22,3.22,0,0,0,1.73,4,2.71,2.71,0,0,0,3.59-1.66,2.94,2.94,0,0,0-1.71-3.79,2.62,2.62,0,0,0-3.61,1.42"/><path class="cls-20" d="M191.7,113.26s2,12.24,10.13,12.94c0,0,6,.13,8-14.44,0,0-11.72-5.22-18.15,1.5"/><path class="cls-21" d="M254.67,43.93s-58.32-23.21-113.15.62a40.26,40.26,0,0,0-20.84-6.88C108,37,100,34.89,97.57,33.86s-5-1.13-4.62,4.21c.33,4.34,6.09,24.61,28,32.33a47.09,47.09,0,0,0,25.29,1.54c3.1-.65,6.76-1.46,10.11-2.35,10.88-2.87,34.95-3,44.87,23.54,0,0,5.31-25,32.67-25.06.95,0,1.9,0,2.84-.07a34,34,0,0,1,12.44,1.58c7.8,2.47,38,9,54-25.26,0,0,2.87-5.54,3.08-8.42s-3.9-1.44-5.75-.41-16.21,1.7-25.67,2.06a43.76,43.76,0,0,0-20.13,6.37"/><path class="cls-22" d="M254.67,43.93s-58.32-23.21-113.15.62a40.26,40.26,0,0,0-20.84-6.88C108,37,100,34.89,97.57,33.86s-5-1.13-4.62,4.21c.33,4.34,6.09,24.61,28,32.33a47.09,47.09,0,0,0,25.29,1.54c3.1-.65,6.76-1.46,10.11-2.35,10.88-2.87,34.95-3,44.87,23.54,0,0,5.31-25,32.67-25.06.95,0,1.9,0,2.84-.07a34,34,0,0,1,12.44,1.58c7.8,2.47,38,9,54-25.26,0,0,2.87-5.54,3.08-8.42s-3.9-1.44-5.75-.41-16.21,1.7-25.67,2.06A43.76,43.76,0,0,0,254.67,43.93Z"/><path class="cls-7" d="M191.27,112.5a.14.14,0,0,1-.18-.2c1.19-1.69,4.38-6.86,8.39-8.76,4.28-2,10.35,6.67,11.48,8.64.07.13-.06.29-.19.22-2.23-1.23-5.11,2-9.76,1.83-3.14-.09-6.74-3.46-9.75-1.74"/><path class="cls-23" d="M191.27,112.5a.14.14,0,0,1-.18-.2c1.19-1.69,4.38-6.86,8.39-8.76,4.28-2,10.35,6.67,11.48,8.64.07.13-.06.29-.19.22-2.23-1.23-5.11,2-9.76,1.83C197.88,114.14,194.28,110.78,191.27,112.5Z"/><path class="cls-7" d="M191.83,112.74c1.15,2.88,4.61,10.44,9.62,12.05a25.91,25.91,0,0,0,8.67-11.69.09.09,0,0,1,.17,0c-1.07,4.2-3.93,13.47-8.84,16.16a25.39,25.39,0,0,1-9.89-16.49.14.14,0,0,1,.27-.08"/><path class="cls-23" d="M191.83,112.74c1.15,2.88,4.61,10.44,9.62,12.05a25.91,25.91,0,0,0,8.67-11.69.09.09,0,0,1,.17,0c-1.07,4.2-3.93,13.47-8.84,16.16a25.39,25.39,0,0,1-9.89-16.49A.14.14,0,0,1,191.83,112.74Z"/></g></g></svg>