<svg xmlns="http://www.w3.org/2000/svg" viewBox="0 0 580 490"><defs><style>.cls-1{fill:#d78428;}.cls-10,.cls-13,.cls-15,.cls-17,.cls-2,.cls-22,.cls-23,.cls-4,.cls-6,.cls-8{fill:none;stroke-width:2.79px;}.cls-2{stroke:#d56c28;}.cls-10,.cls-13,.cls-15,.cls-17,.cls-2,.cls-22,.cls-23,.cls-4,.cls-6{stroke-miterlimit:10;}.cls-3{fill:#d46a28;}.cls-4{stroke:#c36323;}.cls-5{fill:#fff6cf;}.cls-6{stroke:#dcd393;}.cls-7{fill:gold;}.cls-23,.cls-8{stroke:#fbae17;}.cls-8{stroke-linecap:round;stroke-linejoin:round;}.cls-9{fill:#c4242b;}.cls-10{stroke:#9e1519;}.cls-11{fill:#fff;}.cls-12{fill:#ddbd21;}.cls-13{stroke:#d99b26;}.cls-14{fill:#fbc904;}.cls-15{stroke:#d99a26;}.cls-16{fill:#f1f1f2;}.cls-17{stroke:#c6c6c6;}.cls-18{fill:#643e1c;}.cls-19{fill:#ededed;}.cls-20{fill:#b62f38;}.cls-21{fill:#dba725;}.cls-22{stroke:#d67e28;}</style></defs><title>hero-burung</title><g id="Berita_Terbaru" data-name="Berita Terbaru"><path class="cls-1" d="M215,252.11c-22.26-12.79-66.58-44.75-62.65-94.83a3.2,3.2,0,0,1,.14-.73c.7-2.19,3.74-16-24.82-31.2-29-15.43-88.31-67.09-102.41-96.22a3.26,3.26,0,0,0-5.91.1c-7.16,16-14.16,63,94.77,134.27L18.38,97.93a3.27,3.27,0,0,0-4.93,3.78c5.75,16.51,22.17,52,62.1,73.68L26.18,144.77a3.27,3.27,0,0,0-4.83,3.79c4.59,13.76,18.31,42,56.81,60.8L32.6,187.14a3.27,3.27,0,0,0-4.46,4.17c5.37,12.93,21.19,39.36,64.12,54.9L52.42,231a3.27,3.27,0,0,0-4.26,4.1c3.16,9.3,12,26.75,35.73,38.29a3.27,3.27,0,0,1-1.39,6.22,3.27,3.27,0,0,0-2.68,5.13c11,15.81,48.84,61.67,104.39,41.22,33.31-12.27,44.19-27.21,46.69-40.06,2.61-13.46-4.06-27-15.95-33.83"/><path class="cls-2" d="M215,252.11c-22.26-12.79-66.58-44.75-62.65-94.83a3.2,3.2,0,0,1,.14-.73c.7-2.19,3.74-16-24.82-31.2-29-15.43-88.31-67.09-102.41-96.22a3.26,3.26,0,0,0-5.91.1c-7.16,16-14.16,63,94.77,134.27L18.38,97.93a3.27,3.27,0,0,0-4.93,3.78c5.75,16.51,22.17,52,62.1,73.68L26.18,144.77a3.27,3.27,0,0,0-4.83,3.79c4.59,13.76,18.31,42,56.81,60.8L32.6,187.14a3.27,3.27,0,0,0-4.46,4.17c5.37,12.93,21.19,39.36,64.12,54.9L52.42,231a3.27,3.27,0,0,0-4.26,4.1c3.16,9.3,12,26.75,35.73,38.29a3.27,3.27,0,0,1-1.39,6.22,3.27,3.27,0,0,0-2.68,5.13c11,15.81,48.84,61.67,104.39,41.22,33.31-12.27,44.19-27.21,46.69-40.06C233.52,272.48,226.84,258.94,215,252.11Z"/><path class="cls-1" d="M371.51,258.2c22.26-12.79,66.58-44.75,62.65-94.83a3.2,3.2,0,0,0-.14-.73c-.7-2.19-3.74-16,24.82-31.19,29-15.44,88.31-67.09,102.4-96.22a3.26,3.26,0,0,1,5.91.1c7.16,16,14.16,63-94.77,134.27L568.09,104a3.27,3.27,0,0,1,4.93,3.78c-5.75,16.51-22.17,52-62.1,73.68l49.36-30.61a3.27,3.27,0,0,1,4.83,3.79c-4.59,13.76-18.31,42-56.82,60.8l45.56-22.22a3.27,3.27,0,0,1,4.46,4.17c-5.37,12.93-21.19,39.36-64.11,54.9L534,237.12a3.27,3.27,0,0,1,4.26,4.1c-3.16,9.3-12,26.75-35.73,38.3a3.27,3.27,0,0,0,1.39,6.22,3.27,3.27,0,0,1,2.68,5.13c-11,15.81-48.84,61.67-104.39,41.21-33.31-12.27-44.2-27.21-46.69-40.05-2.61-13.46,4.06-27,15.95-33.83"/><path class="cls-2" d="M371.51,258.2c22.26-12.79,66.58-44.75,62.65-94.83a3.2,3.2,0,0,0-.14-.73c-.7-2.19-3.74-16,24.82-31.19,29-15.44,88.31-67.09,102.4-96.22a3.26,3.26,0,0,1,5.91.1c7.16,16,14.16,63-94.77,134.27L568.09,104a3.27,3.27,0,0,1,4.93,3.78c-5.75,16.51-22.17,52-62.1,73.68l49.36-30.61a3.27,3.27,0,0,1,4.83,3.79c-4.59,13.76-18.31,42-56.82,60.8l45.56-22.22a3.27,3.27,0,0,1,4.46,4.17c-5.37,12.93-21.19,39.36-64.11,54.9L534,237.12a3.27,3.27,0,0,1,4.26,4.1c-3.16,9.3-12,26.75-35.73,38.3a3.27,3.27,0,0,0,1.39,6.22,3.27,3.27,0,0,1,2.68,5.13c-11,15.81-48.84,61.67-104.39,41.21-33.31-12.27-44.2-27.21-46.69-40.05C353,278.57,359.63,265,371.51,258.2Z"/><path class="cls-3" d="M232.81,316.31s22,15.65,13.91,29.56S211.65,401,218.32,419.79c0,0,9.85,10.43,32.46-33,0,0-13.62,37.1,7.83,60.29,0,0,17.82-16.17,16.88-47.94,0,0-7.75,40.21,20.37,57.31,0,0,23.57-11.79,21.88-54.88,0,0,5.22,38.26,15.07,45.8,0,0,17.68-21.45,9-60.29,0,0,7.25,26.38,26.38,33.91,0,0,7.25-27.54-23.19-79.42,0,0-7.25-6.09,13.33-27.83S343.83,235.3,294.26,241s-77.68,39.85-61.45,75.36"/><path class="cls-4" d="M232.81,316.31s22,15.65,13.91,29.56S211.65,401,218.32,419.79c0,0,9.85,10.43,32.46-33,0,0-13.62,37.1,7.83,60.29,0,0,17.82-16.17,16.88-47.94,0,0-7.75,40.21,20.37,57.31,0,0,23.57-11.79,21.88-54.88,0,0,5.22,38.26,15.07,45.8,0,0,17.68-21.45,9-60.29,0,0,7.25,26.38,26.38,33.91,0,0,7.25-27.54-23.19-79.42,0,0-7.25-6.09,13.33-27.83S343.83,235.3,294.26,241,216.58,280.8,232.81,316.31Z"/><path class="cls-1" d="M216.72,236.67S221.94,246,215,260,176.72,376.8,266.29,416.5s157.39-84.86,119.13-155.7c0,0-8.7-9.6-3.19-25.69,0,0,14.2-35.29-21.74-50.6S273,169.72,245.13,181.39s-43.77,29.84-28.41,55.27"/><path class="cls-2" d="M216.72,236.67S221.94,246,215,260,176.72,376.8,266.29,416.5s157.39-84.86,119.13-155.7c0,0-8.7-9.6-3.19-25.69,0,0,14.2-35.29-21.74-50.6S273,169.72,245.13,181.39,201.36,211.24,216.72,236.67Z"/><path class="cls-5" d="M348.26,386.45c-8.08,17-18.81,27.35-38.08,31.65-8.5,1.9-27-.24-36.72-4.11-36-14.41-41.47-71.2-28.65-106.07,16.62-45.2,77.22-43,100.24-16.45,18.58,21.43,17.8,64.35,3.21,95"/><path class="cls-6" d="M348.26,386.45c-8.08,17-18.81,27.35-38.08,31.65-8.5,1.9-27-.24-36.72-4.11-36-14.41-41.47-71.2-28.65-106.07,16.62-45.2,77.22-43,100.24-16.45C363.63,312.89,362.85,355.81,348.26,386.45Z"/><path class="cls-7" d="M259.18,411.79a65.33,65.33,0,0,0,17,6.08l-9.57,36s15.35,11.37,16.93,19.39c0,0-16.76-5-20.47-7.54,0,0-32.41,14.3-39.51,22.34a52.55,52.55,0,0,1,25.14-29.57,55.11,55.11,0,0,0-29.33,2.82s18-10.75,37.72-9.22c0,0,1.82-36.11,2.12-40.3"/><path class="cls-8" d="M259.18,411.79a65.33,65.33,0,0,0,17,6.08l-9.57,36s15.35,11.37,16.93,19.39c0,0-16.76-5-20.47-7.54,0,0-32.41,14.3-39.51,22.34a52.55,52.55,0,0,1,25.14-29.57,55.11,55.11,0,0,0-29.33,2.82s18-10.75,37.72-9.22C257.06,452.1,258.89,416,259.18,411.79Z"/><path class="cls-7" d="M334.11,413.73a65.29,65.29,0,0,1-17,6.08l9.57,36s-15.35,11.37-16.93,19.39c0,0,16.76-5,20.47-7.54,0,0,32.41,14.3,39.51,22.34a52.54,52.54,0,0,0-25.14-29.57,55.11,55.11,0,0,1,29.33,2.82s-18-10.74-37.72-9.22c0,0-1.82-36.11-2.12-40.3"/><path class="cls-8" d="M334.11,413.73a65.29,65.29,0,0,1-17,6.08l9.57,36s-15.35,11.37-16.93,19.39c0,0,16.76-5,20.47-7.54,0,0,32.41,14.3,39.51,22.34a52.54,52.54,0,0,0-25.14-29.57,55.11,55.11,0,0,1,29.33,2.82s-18-10.74-37.72-9.22C336.23,454,334.4,417.92,334.11,413.73Z"/><path class="cls-9" d="M218.55,238.88s-4.93,10.72-4.49,17.68c0,0,38.12,49.13,85.07,60.87,0,0,52.76-20,88.41-65.22,0,0-1.3-12.17-7-14.35,0,0-65.7,59.18-83.29,58.6,0,0-24.93-7.15-78.74-57.59"/><path class="cls-10" d="M218.55,238.88s-4.93,10.72-4.49,17.68c0,0,38.12,49.13,85.07,60.87,0,0,52.76-20,88.41-65.22,0,0-1.3-12.17-7-14.35,0,0-65.7,59.18-83.29,58.6C297.29,296.46,272.37,289.31,218.55,238.88Z"/><path class="cls-11" d="M214.34,249s27.68,39.4,83.91,61.14c0,0,50.26-18.95,88.52-64.46,0,0-2.38-6.85-3.49-8.2,0,0-26.48,42.51-85.22,66.67,0,0-38.84-13.72-81.35-58.94l-.86-1.25a43.37,43.37,0,0,0-1.5,5"/><path class="cls-12" d="M338.4,324.64A40.42,40.42,0,1,1,298,284.22a40.42,40.42,0,0,1,40.42,40.42"/><circle class="cls-13" cx="297.97" cy="324.64" r="40.42"/><path class="cls-14" d="M333.88,324.64a35.93,35.93,0,1,1-35.93-35.93,35.93,35.93,0,0,1,35.93,35.93"/><circle class="cls-15" cx="297.94" cy="324.64" r="35.93"/><path class="cls-1" d="M312.46,307.94a13.63,13.63,0,0,0-4.71-1.32,45.05,45.05,0,0,0-12.34.56.87.87,0,0,0-.82.82c-.2,1.2-.44,2.39-.67,3.58L291.8,322.9q-1.77,9.38-3.52,18.75c-.05.28-.08.56-.12.9l8.59,0,2.34-12.24c.47,0,.88,0,1.28,0a23.37,23.37,0,0,0,5.68-.39,15.8,15.8,0,0,0,6.5-2.7,12.72,12.72,0,0,0,5.25-10.75,9,9,0,0,0-5.34-8.49m-9.59,15.29c-.78,0-1.56-.07-2.45-.11l1.78-9.4c.08-.07.12-.14.17-.15a8.37,8.37,0,0,1,4.16.08,3.15,3.15,0,0,1,2.36,2.93,6,6,0,0,1-6,6.65"/><path class="cls-14" d="M278.61,345.72s15.26-32.71,49.33-38c0,0-26.57,5.18-45.93,38.16h-3.5Z"/><path class="cls-1" d="M290.74,328.54l-1.08,6.09s-7.22,9.18-8.42,14h-4s2.93-8.34,13.47-20.08"/><path class="cls-1" d="M301.16,319.08l-.88,4s7.66-6.28,8.6-6.5a3.09,3.09,0,0,0-.75-2s-6.17,3.73-7,4.49"/><path class="cls-1" d="M316.06,310.86a5,5,0,0,1,.7,1s7.44-3.59,11.08-4.19a58.77,58.77,0,0,0-11.79,3.15"/><path class="cls-3" d="M142.87,76.11s-.83,26,22.32,47.14c20.89,19,61.72,33.46,133.33,31.43C371.26,152.61,410,138.14,430,119c21.41-20.62,21.11-46,21.11-46s-125.75,81.22-308.19,3.12"/><path class="cls-4" d="M142.87,76.11s-.83,26,22.32,47.14c20.89,19,61.72,33.46,133.33,31.43C371.26,152.61,410,138.14,430,119c21.41-20.62,21.11-46,21.11-46S325.32,154.21,142.87,76.11Z"/><path class="cls-1" d="M399.8,137.4a96.21,96.21,0,0,0-55.47-51.66,147,147,0,0,0-52.21-8.31c-56.75,1.05-99.84,32.93-110.35,94.94S242.2,257,242.2,257s66.21,20.49,124.54-6.31c46.94-21.57,52.82-69,33.05-113.27"/><path class="cls-2" d="M399.8,137.4a96.21,96.21,0,0,0-55.47-51.66,147,147,0,0,0-52.21-8.31c-56.75,1.05-99.84,32.93-110.35,94.94S242.2,257,242.2,257s66.21,20.49,124.54-6.31C413.69,229.1,419.56,181.67,399.8,137.4Z"/><path class="cls-5" d="M297.73,104s-59-18.59-93.46,28.69a80.39,80.39,0,0,0-10.44,19.94c-1.85,5.08-4.52,11.37-6.76,12.75,0,0,6.54,2.67,17.55-4.79,0,0-14.84,26.61-25.33,37.09,0,0,8.9,5.79,19.28-2.62,0,0-5.95,20-14.83,24.3,0,0,5.09,7.89,19.17,3.48,0,0-.52,12.59-9,15.92,0,0,9.28,4.14,21.3-.72,0,0,3.56,10.57,23.63,16.52s91.29,24.76,136.6-13.18c0,0,5.68-4.64,7.21-7.32,0,0,11.59,6.12,20.47.09,0,0-12.06-4.76-11.64-13.89,0,0,17.8,5.69,21.48,1.51,0,0-14.49-15.41-13.32-24.11,0,0,9-.13,17.42-1.15,0,0-20-27.12-25.68-34.74,0,0,10.87,4.15,18.1,2,0,0-9.92-9.07-13.47-16.8-1.59-3.46-35.2-61.08-98.27-43"/><path class="cls-6" d="M297.73,104s-59-18.59-93.46,28.69a80.39,80.39,0,0,0-10.44,19.94c-1.85,5.08-4.52,11.37-6.76,12.75,0,0,6.54,2.67,17.55-4.79,0,0-14.84,26.61-25.33,37.09,0,0,8.9,5.79,19.28-2.62,0,0-5.95,20-14.83,24.3,0,0,5.09,7.89,19.17,3.48,0,0-.52,12.59-9,15.92,0,0,9.28,4.14,21.3-.72,0,0,3.56,10.57,23.63,16.52s91.29,24.76,136.6-13.18c0,0,5.68-4.64,7.21-7.32,0,0,11.59,6.12,20.47.09,0,0-12.06-4.76-11.64-13.89,0,0,17.8,5.69,21.48,1.51,0,0-14.49-15.41-13.32-24.11,0,0,9-.13,17.42-1.15,0,0-20-27.12-25.68-34.74,0,0,10.87,4.15,18.1,2,0,0-9.92-9.07-13.47-16.8C394.41,143.57,360.8,85.94,297.73,104Z"/><path class="cls-16" d="M288.56,144.83c0,19-19,37-40.88,37s-36.75-14.56-36.75-33.55,17.7-34.38,39.54-34.38,38.09,12,38.09,31"/><path class="cls-17" d="M288.56,144.83c0,19-19,37-40.88,37s-36.75-14.56-36.75-33.55,17.7-34.38,39.54-34.38S288.56,125.85,288.56,144.83Z"/><path class="cls-18" d="M270.85,138.1c3.83,9.89-1.33,22.65-11.39,26.54s-19.88-1-23.7-10.92a19.38,19.38,0,0,1,11.29-25c10.07-3.9,20-.55,23.8,9.34"/><path class="cls-11" d="M251.36,134.14a4.65,4.65,0,0,1-2.5,5.82,3.91,3.91,0,0,1-5.19-2.39,4.25,4.25,0,0,1,2.47-5.47c2.2-.85,4.38-.12,5.21,2"/><path class="cls-19" d="M308.71,144.83c0,19,19,37,40.88,37s36.75-14.56,36.75-33.55-17.7-34.38-39.54-34.38-38.09,12-38.09,31"/><path class="cls-17" d="M308.71,144.83c0,19,19,37,40.88,37s36.75-14.56,36.75-33.55-17.7-34.38-39.54-34.38S308.71,125.85,308.71,144.83Z"/><path class="cls-18" d="M326.42,138.1c-3.83,9.89,1.33,22.65,11.39,26.54s19.88-1,23.7-10.92a19.37,19.37,0,0,0-11.29-25c-10.07-3.9-20-.55-23.8,9.34"/><path class="cls-11" d="M345.91,134.14a4.65,4.65,0,0,0,2.49,5.82,3.91,3.91,0,0,0,5.19-2.39,4.25,4.25,0,0,0-2.47-5.47c-2.21-.85-4.38-.12-5.21,2"/><path class="cls-20" d="M285.57,184.76s3,17.68,14.64,18.7c0,0,8.69.19,11.59-20.87,0,0-16.93-7.55-26.23,2.17"/><path class="cls-21" d="M376.58,84.57S292.3,51,213.06,85.46a58.17,58.17,0,0,0-30.12-9.94c-18.25-.89-29.82-4-33.39-5.49s-7.27-1.63-6.68,6.09c.48,6.27,8.8,35.56,40.4,46.72a68.06,68.06,0,0,0,36.54,2.23c4.49-.93,9.77-2.11,14.61-3.39,15.73-4.15,50.5-4.38,64.85,34,0,0,7.68-36.09,47.21-36.21,1.37,0,2.74,0,4.11-.09a49.1,49.1,0,0,1,18,2.28c11.28,3.56,54.9,13.06,78.05-36.5,0,0,4.15-8,4.45-12.17s-5.64-2.08-8.31-.59-23.42,2.46-37.1,3c-16,.59-29.09,9.2-29.09,9.2"/><path class="cls-22" d="M376.58,84.57S292.3,51,213.06,85.46a58.17,58.17,0,0,0-30.12-9.94c-18.25-.89-29.82-4-33.39-5.49s-7.27-1.63-6.68,6.09c.48,6.27,8.8,35.56,40.4,46.72a68.06,68.06,0,0,0,36.54,2.23c4.49-.93,9.77-2.11,14.61-3.39,15.73-4.15,50.5-4.38,64.85,34,0,0,7.68-36.09,47.21-36.21,1.37,0,2.74,0,4.11-.09a49.1,49.1,0,0,1,18,2.28c11.28,3.56,54.9,13.06,78.05-36.5,0,0,4.15-8,4.45-12.17s-5.64-2.08-8.31-.59-23.42,2.46-37.1,3C389.63,76,376.58,84.57,376.58,84.57Z"/><path class="cls-7" d="M285,183.66a.2.2,0,0,1-.27-.29c1.72-2.44,6.33-9.92,12.13-12.66,6.19-2.92,15,9.65,16.6,12.49.11.18-.09.43-.28.32-3.23-1.77-7.39,2.85-14.1,2.65-4.53-.14-9.74-5-14.08-2.51"/><path class="cls-23" d="M285,183.66a.2.2,0,0,1-.27-.29c1.72-2.44,6.33-9.92,12.13-12.66,6.19-2.92,15,9.65,16.6,12.49.11.18-.09.43-.28.32-3.23-1.77-7.39,2.85-14.1,2.65C294.51,186,289.3,181.17,285,183.66Z"/><path class="cls-7" d="M285.77,184c1.67,4.16,6.67,15.08,13.91,17.42a37.44,37.44,0,0,0,12.53-16.9.13.13,0,0,1,.25.07c-1.54,6.07-5.67,19.47-12.78,23.35a36.69,36.69,0,0,1-14.29-23.83.2.2,0,0,1,.38-.11"/><path class="cls-23" d="M285.77,184c1.67,4.16,6.67,15.08,13.91,17.42a37.44,37.44,0,0,0,12.53-16.9.13.13,0,0,1,.25.07c-1.54,6.07-5.67,19.47-12.78,23.35a36.69,36.69,0,0,1-14.29-23.83A.2.2,0,0,1,285.77,184Z"/></g></svg>