<svg xmlns="http://www.w3.org/2000/svg" viewBox="0 0 200 200"><defs><style>.cls-1{fill:#fff;}.cls-2{fill:#201100;}.cls-3{fill:#fcdede;stroke:#c4745d;}.cls-3,.cls-6,.cls-7,.cls-8{stroke-miterlimit:10;}.cls-3,.cls-8{stroke-width:2px;}.cls-4{fill:#cc8940;}.cls-5{fill:#ce5959;}.cls-6,.cls-7{fill:none;stroke:#000;stroke-linecap:round;}.cls-7{stroke-width:4px;}.cls-8{fill:#82a1bc;stroke:#6d8291;}.cls-9{fill:#f4eff2;}.cls-10{fill:#e29e38;}.cls-11{fill:#d5d5d5;}</style></defs><title>menu-smk</title><g id="Informasi_Lomba" data-name="Informasi Lomba"><circle class="cls-1" cx="100.29" cy="100.21" r="99.29"/><path class="cls-2" d="M159.09,78.22,159.55,94s-6,30.55-6,37.5-1.39,24.07,13,26.85c0,0-26.39,9.26-45.37-1.39s-76.38,4.63-81.94,3.24c0,0,11.57-25.92,7.41-41.2s54.35-71.63,54.35-71.63Z"/><path class="cls-3" d="M50,76.44,39.39,121.33a41.66,41.66,0,0,0-.17,19.54c1.54,7.19,5.77,15.65,13.33,18.89,15.77,6.76,62.82,1.46,62.82,1.46s19.27-2.51,21.53-21.38,2.8-19.52,2.8-19.52,21.53.16,24.21-21.68c2-16-15.77-16.33-20.27-8.17,0,0-4.68-60.88-63.35-47C67.24,46.55,53,63.38,50,76.44Z"/><ellipse class="cls-2" cx="61.58" cy="106.02" rx="4.7" ry="5.05" transform="translate(-59.51 125.26) rotate(-68.88)"/><ellipse class="cls-2" cx="92.37" cy="107.64" rx="5.05" ry="4.7" transform="translate(-32.59 40.52) rotate(-21.12)"/><path class="cls-4" d="M70.71,113.49s-7.87,9.59-2,13.07c5.67,3.37,7.74-.56,8-3.63C77.08,118.87,77.47,106.73,70.71,113.49Z"/><path class="cls-5" d="M64.47,135.06s3.11-1,23.34,1.36C87.81,136.42,70.55,146.27,64.47,135.06Z"/><path class="cls-6" d="M56.38,89.7S62.25,85.05,69,87"/><path class="cls-7" d="M102.39,93.68S97,87.48,89.18,87.42"/><path class="cls-2" d="M127.85,42.71S99.57,22.87,68,40.94A42.49,42.49,0,0,0,50.11,61.36c-4.78,11.35-10.57,29.95-8.42,50,0,0,6.65-27.73,6.65-30.51s25.22,7.86,68.3-24.27c0,0-5.61,33.67,27,33.82C143.61,90.4,158.33,56.57,127.85,42.71Z"/><path class="cls-8" d="M159.55,85.64l-23.2-1.82a21,21,0,0,1-8.26-2.4c-9.61-5.14-38-18.34-77.95-19.68,0,0,11.36-35,43.74-33.87C134.27,29.32,159.88,39.71,159.55,85.64Z"/><path class="cls-9" d="M130.08,82.65s7.56-34.11-23.15-53.23c0,0-39.18-11.9-56,31.59C50.94,61,97.31,66.67,130.08,82.65Z"/><path class="cls-8" d="M130.26,82.55S123,93.15,101.11,94s-27.57-14.2-47.3-14.45S21.7,79.65,25,70.28s22.79-8.22,22.79-8.22S82.74,56,130.26,82.55Z"/><path class="cls-10" d="M86.55,56.07s2,0,2.52-.81a1.34,1.34,0,0,1,1.39-.54,7.25,7.25,0,0,0,4.47,2.4s2,.13,1.88-.93c0,0,1.86-.16,1.84-1.28,0,0,1.61-.36,1.32-1.4,0,0,1.37-.58.93-1.64,0,0,2.9-.92,1.8-3.44a11,11,0,0,1-1.11-3.56,2.88,2.88,0,0,0-.65,2.45c.19,1.71-.2,2.4-.81,2.59S97.45,49,97,48.23s-3.21-2.55-3.59.41a2.17,2.17,0,0,1-1,1.72,3,3,0,0,0,.09-2.66A22.56,22.56,0,0,1,98.06,40s.11-1.65-2-1.42c0,0-.22-2.45-1.56-1.93a9.94,9.94,0,0,0-.69-1.13,1,1,0,0,1-.15-.76Z"/><path class="cls-10" d="M86.7,56.12S85.09,55,85.12,54.06a1.27,1.27,0,0,0-.82-1.21,7.47,7.47,0,0,1-5.09-.51s-1.68-1-1-1.79c0,0-1.42-1.16-.73-2.07,0,0-1.1-1.18-.25-1.88,0,0-.77-1.23.22-1.85,0,0-1.82-2.36.59-3.81a11.67,11.67,0,0,0,3-2.3A2.87,2.87,0,0,1,80.14,41c-1.17,1.29-1.27,2.07-.88,2.57s2.74.75,3.57.36,4.15-.31,2.69,2.32a2.13,2.13,0,0,0-.18,2A3.09,3.09,0,0,1,86.86,46a21.78,21.78,0,0,0,0-9.4s.9-1.42,2.49,0c0,0,1.64-1.88,2.43-.72a10.63,10.63,0,0,1,1.24-.54,1,1,0,0,0,.58-.53Z"/><path class="cls-11" d="M86.61,56s4.06-.78,5.5,1.53c0,0,1.09,1.17,1.39,1.4l-.65,2.68s-2-2.63-3.15-3-3.26-.47-3.93.13c0,0-1.62-2.16-3.58-2.27a9.93,9.93,0,0,0-3.84.67l1.18-2.78a5.6,5.6,0,0,0,1.51-.29A6.66,6.66,0,0,1,86.61,56Z"/></g></svg>