<svg xmlns="http://www.w3.org/2000/svg" viewBox="0 0 200 200"><defs><style>.cls-1{fill:#fff;}.cls-2{fill:#fcdede;stroke:#c4745d;}.cls-2,.cls-6,.cls-7{stroke-miterlimit:10;}.cls-2,.cls-7{stroke-width:2px;}.cls-3{fill:#201100;}.cls-4{fill:#cc8940;}.cls-5{fill:#ce5959;}.cls-6{fill:none;stroke:#000;stroke-linecap:round;stroke-width:4px;}.cls-7{fill:#276caa;stroke:#2a3776;}.cls-8{fill:#f4eff2;}.cls-9{fill:#e29e38;}.cls-10{fill:#d5d5d5;}</style></defs><title>menu-smp</title><g id="Informasi_Lomba" data-name="Informasi Lomba"><circle class="cls-1" cx="99" cy="102.5" r="99"/><path class="cls-2" d="M53.47,86.53l-10.36,37c-1.68,6.2-3,17.36-1.81,23.69,1.33,7.25,7,14.35,15.34,17.56,13.66,5.25,47.28,4.36,59.23,3.51a39.81,39.81,0,0,0,15.34-4.22c6.27-3.21,13.08-8.8,14.21-18.17,1-8.23,1.36-9.53,1.36-9.53s24.1-.34,25.59-21.25S154.65,94,149.27,104.32c0,0,3.29-57.9-69.75-48C65.8,58.16,56.71,74.09,53.47,86.53Z"/><path class="cls-3" d="M69.91,115.94C69,120,66.32,123,63.86,122.66s-3.74-4-2.86-8.05,3.59-7.08,6.05-6.72S70.8,111.86,69.91,115.94Z"/><path class="cls-3" d="M106,118.14c-.88,4.08-3.59,7.08-6.05,6.72s-3.74-4-2.86-8.05,3.59-7.08,6.05-6.72S106.86,114.06,106,118.14Z"/><path class="cls-4" d="M71.8,127s-6.87,4.61-.25,8.51,10-.42,9.31-3.42S79.85,120.35,71.8,127Z"/><path class="cls-5" d="M66.25,142.94s7.9-1.35,25.11,2.06C91.37,145,73,163.3,66.25,142.94Z"/><path class="cls-6" d="M59.7,98.13s6.71-4.27,13.69-1.48"/><path class="cls-6" d="M112.5,102.93s-5.9-5.34-13.25-3.77"/><path d="M146,63.72s-11.43-36.05-68.51-8.91c0,0-10.14,6.24-19.78,7.66-3.86.57-2,8.16,4.3,7,0,0,.16,1.25-2.59,3.08-2,1.32-4.78,5.79,3.65,5.25,0,0-.13,2.23-1.46,3-3.16,1.91-5.27,9.95,9.89,5.62,12.36-3.53,40.46,9.16,61.14-7.66,0,0,0,14.82,8.27,20.65,0,0,3.41,9.66,2.76,12.66,0,0,2.92,1.33,6.32-3.66,0,0,1.95-10.16,11-10C161,98.44,162.28,63,146,63.72Z"/><path class="cls-7" d="M161,93.57,133.6,91.25S102.42,69.94,53.54,68.15c0,0,11.16-37.25,43-36C136.16,33.68,161.31,44.73,161,93.57Z"/><path class="cls-8" d="M132,90.4s6.48-36.14-22-56.43a4,4,0,0,0-1.93-.71l-6.41-.45c-.44,0-33.1-6.41-47.54,35.18C54.2,68,100.62,73.55,132,90.4Z"/><path class="cls-7" d="M132.23,90.29s-7.1,11.28-28.63,12.21S76.53,87.39,57.15,87.12s-31.53.08-28.26-9.89S51.27,68.5,51.27,68.5,85.56,62.09,132.23,90.29Z"/><path class="cls-9" d="M89.3,62.13s2,0,2.48-.86a1.26,1.26,0,0,1,1.37-.57,7,7,0,0,0,4.39,2.55s1.92.14,1.84-1c0,0,1.83-.17,1.8-1.37,0,0,1.58-.38,1.3-1.49,0,0,1.34-.62.91-1.74,0,0,2.84-1,1.77-3.66a12.42,12.42,0,0,1-1.09-3.79,3.22,3.22,0,0,0-.64,2.61c.18,1.81-.19,2.55-.8,2.76s-2.64-1-3.08-1.79-3.15-2.71-3.52.43a2.37,2.37,0,0,1-1,1.83,3.42,3.42,0,0,0,.09-2.83A24.18,24.18,0,0,1,100.6,45s.11-1.76-2-1.51c0,0-.21-2.6-1.54-2.06a10.78,10.78,0,0,0-.68-1.2,1.13,1.13,0,0,1-.15-.8Z"/><path class="cls-9" d="M89.44,62.18S87.87,61,87.89,60a1.33,1.33,0,0,0-.81-1.29,6.81,6.81,0,0,1-5-.54s-1.65-1-1-1.91c0,0-1.4-1.24-.72-2.2,0,0-1.08-1.25-.24-2,0,0-.76-1.31.21-2,0,0-1.78-2.51.58-4.06a11.68,11.68,0,0,0,3-2.45A3.22,3.22,0,0,1,83,46.1c-1.15,1.38-1.25,2.2-.87,2.73s2.69.8,3.51.38,4.07-.33,2.65,2.46a2.42,2.42,0,0,0-.18,2.11,3.33,3.33,0,0,1,1.49-2.37,25,25,0,0,0,0-10s.88-1.51,2.45-.05c0,0,1.61-2,2.39-.76A10.06,10.06,0,0,1,95.68,40a1.07,1.07,0,0,0,.57-.57Z"/><path class="cls-10" d="M89.36,62.08s4-.83,5.41,1.63c0,0,1.07,1.24,1.37,1.49L95.5,68s-2-2.8-3.09-3.16-3.2-.5-3.86.14c0,0-1.59-2.3-3.52-2.41a9.11,9.11,0,0,0-3.77.72l1.16-3a5.12,5.12,0,0,0,1.48-.31A6.21,6.21,0,0,1,89.36,62.08Z"/></g></svg>