<svg xmlns="http://www.w3.org/2000/svg" viewBox="0 0 200 200"><defs><style>.cls-1{fill:#fff;}.cls-2{fill:#4f3013;}.cls-2,.cls-8{stroke:#45232f;}.cls-10,.cls-2,.cls-3,.cls-7,.cls-8,.cls-9{stroke-miterlimit:10;}.cls-10,.cls-2,.cls-3,.cls-8,.cls-9{stroke-width:2px;}.cls-3{fill:#efc6ab;stroke:#7f4a3a;}.cls-4{fill:#201100;}.cls-5{fill:#cc8940;}.cls-6{fill:#ce5959;}.cls-7{fill:none;stroke:#000;stroke-linecap:round;}.cls-8{fill:#663e1d;}.cls-9{fill:#373733;stroke:#1a1a1a;}.cls-10{fill:#fcee21;stroke:#fbb03b;}</style></defs><title>menu-dikti</title><g id="Informasi_Lomba" data-name="Informasi Lomba"><circle class="cls-1" cx="101.04" cy="101.46" r="97.04"/><path class="cls-2" d="M140.77,52.74s33.22,4,13.55,57.51c0,0-2.91,1.9-.51,8.14s4.14,9.41,1.3,12.78-1,10.77.72,14.2c1.91,3.78.72,12.78-7.2,11.54,0,0-2.19,7.53-10.93,6,0,0-6.41,7.76-18.65,3.82,0,0-29.58,6.52-51.87-.56,0,0-10.49,2.25-16.9-4.16,0,0-9.28-.88-5.78-9.32,0,0-6.63-6.46-.22-11.63,0,0,9.06-4.58,5.27-18.07s2.26-55.88,20-69.21S122,39.92,140.77,52.74Z"/><path class="cls-3" d="M52.3,82.78l-7.14,36.28c-1.58,7-2.3,15.1-.87,22.15,1.49,7.34,8.37,16.4,20.64,24.11,14.23,8.94,31.72,5,31.72,5s29.29-5.52,35.42-23.89a179.91,179.91,0,0,1,7.44-18.89s20.93.17,23.53-22.11c1.92-16.37-15.32-16.65-19.7-8.33,0,0-4.55-62.09-61.57-48C69.09,52.29,55.27,69.46,52.3,82.78Z"/><path class="cls-4" d="M68.31,114c-.9,2.13-3.85,2.93-6.6,1.79s-4.24-3.79-3.34-5.92,3.85-2.93,6.6-1.79S69.21,111.88,68.31,114Z"/><path class="cls-4" d="M99.94,115.75c0,2.31-2.47,4.16-5.44,4.14s-5.36-1.92-5.33-4.22,2.47-4.16,5.44-4.14S100,113.44,99.94,115.75Z"/><path class="cls-5" d="M72.47,120.56s-7.65,9.78-2,13.33c5.51,3.43,7.53-.57,7.79-3.7C78.66,126.05,79,113.67,72.47,120.56Z"/><path class="cls-6" d="M67.49,142.53s5.88,2.59,21,1.86C88.51,144.39,72.67,157.8,67.49,142.53Z"/><path class="cls-7" d="M60.72,94.85s3.71-5.62,10.16-4.25"/><path class="cls-7" d="M106.11,100.05S101.84,92,93.73,93"/><path class="cls-8" d="M138.6,55.42S134,47.55,123.31,42.69C110.16,36.73,97.63,41,89.7,41,76.45,41,75.06,45.81,71,48,60.08,50.71,60.3,55.27,57.19,60.92c-1.74,3.15-6.31,4.94-8.26,10.64-2.75,8,.18,16.87,1.09,21.36,1.46-3.08,3.07-5.21,3.78-10.6.44-3.26,5.61-3.17,8.82-6.27,2.65-2.56,2.88-6.9,4.71-7.82A18.31,18.31,0,0,0,77,81.59C85.14,86,94.08,84,99.27,86.37c1.93.88,9.63,9.53,16.41,11.84,5.69,1.93,9.66,0,13.94,1,1.81,7.89-6.88,13.65-2.43,27.33,2.84,8.73-5.43,15.86-1,23.57,2.94,5.09.22,10.59-2.74,14.45a4.12,4.12,0,0,0,3.66,6.63h.12c2.79-.33,5.1-4.92,6.71-7.23,4.37-6.25,3.81-7.18,3.91-12.45.22-11.44.78-13.49,3.19-15.93,14.09-14.26,4.14-13.64,9.13-25.05C152.28,105.73,166.41,67.65,138.6,55.42Z"/><path class="cls-9" d="M63.38,38,56.87,59.61S81.48,84.16,160.28,80.74l1.56.44.68-36.46Z"/><polygon class="cls-9" points="45.32 37.6 104.23 19.03 188.15 35.86 128.09 70.45 45.32 37.6"/><path class="cls-10" d="M120.11,38.77s29.24,4.27,32.1,18.51.64,82.69-1.6,83.43,3.72-65.48-.74-80.36-31.1-18.77-31.1-18.77S114.91,40.26,120.11,38.77Z"/><path class="cls-10" d="M147.64,148.15s-.28-8,3.21-10.68,3.49,19.61,3.49,19.61l-2.23.74-1.48-.34-1.82.23-.42-.64-.74.74Z"/></g></svg>