<svg xmlns="http://www.w3.org/2000/svg" viewBox="0 0 200 200"><defs><style>.cls-1{fill:#fff;}.cls-2{fill:#e5b391;stroke:#7f4a3a;}.cls-2,.cls-5,.cls-7{stroke-miterlimit:10;}.cls-2,.cls-7{stroke-width:2px;}.cls-3{fill:#ce5959;}.cls-4{fill:#9b6127;}.cls-5{fill:none;stroke:#000;stroke-linecap:round;stroke-width:4px;}.cls-6{fill:#201100;}.cls-7{fill:#a53434;stroke:#5d2345;}.cls-8{fill:#f4eff2;}.cls-9{fill:#e29e38;}.cls-10{fill:#d5d5d5;}</style></defs><title>menu-sd</title><g id="Informasi_Lomba" data-name="Informasi Lomba"><circle class="cls-1" cx="99.79" cy="100.71" r="98.79"/><path class="cls-2" d="M52.89,88.89l-6.54,24.7c-1.58,5.5-5.23,21.73-4.65,27.42.8,7.9,10.74,14.89,18.62,17.74,12.86,4.66,40.11,3.46,51.36,2.7a39.31,39.31,0,0,0,14.45-3.74c5.9-2.85,12.32-7.81,13.39-16.12a84.12,84.12,0,0,1,1.28-8.45s22.7-.3,24.11-18.85-16.7-18.76-21.76-9.61c0,0,3.1-51.37-65.7-42.6C64.51,63.72,55.94,77.85,52.89,88.89Z"/><path class="cls-3" d="M65.81,134.72s10,4.58,35.74,3.33C101.55,138,74.52,161.66,65.81,134.72Z"/><path class="cls-4" d="M73.28,123.35s-4.86,3.93-.18,7.26,7-.36,6.57-2.92S79,117.64,73.28,123.35Z"/><path class="cls-5" d="M65.28,97.09s4.35-4.07,8.19,1.48"/><path class="cls-5" d="M92.54,99.36s4.14-4.52,9.19.62"/><path class="cls-6" d="M74.5,114.37c-.55,3-2.92,5.16-5.3,4.73s-3.87-3.25-3.32-6.29,2.92-5.16,5.3-4.73S75,111.33,74.5,114.37Z"/><path class="cls-6" d="M97.81,116.63c-.55,3-2.92,5.16-5.3,4.73s-3.87-3.25-3.32-6.29,2.92-5.16,5.3-4.73S98.35,113.59,97.81,116.63Z"/><path class="cls-6" d="M150.94,65.65s.47-11.28-11.06-12.89c0,0-4.94-11.82-15.76-6.71,0,0-11.53-9.4-18.82-4.3,0,0-6.82-7.25-17.88-.81,0,0-10.35-1.61-14.82,4,0,0-11.29,1.34-11.53,11.82,0,0-8,2.55-5.06,11.15,0,0-4.94,7.25.82,11.28,0,0-1.29,8.46,8.7,6.18,0,0,5.06,7.12,10.7,2,0,0,2.71,6.31,8.7,2.42,0,0,4.59,5,8.59.94,0,0,2.94,5.24,10.23,1.21,0,0,5.17,5,9.64-.81,0,0,5.29,2.28,7.41-3,0,0,6.94,3.49,8.59-3.76,0,0-1.53,7.12,3.41,9.27,0,0-.24,5.91,4.12,6.31,0,0-.94,5.24,3.76,5.51A74.53,74.53,0,0,1,144.35,118s5.88-5.51,6.59-10.47a7,7,0,0,0,4.47-6.71s4.23,1.07,5.65-2.69A15.26,15.26,0,0,0,160.7,82S161.29,66.73,150.94,65.65Z"/><path class="cls-7" d="M162.64,86.54H135.89s-34.18-17.7-81.73-15.39c0,0,2.23-39.24,40.87-39.24S158.92,38.84,162.64,86.54Z"/><path class="cls-8" d="M134.49,86.54s4.22-36.67-26.78-54.24l-7.54-.36s-30.27-6.17-46,39.21C54.16,71.16,101.8,72.44,134.49,86.54Z"/><path class="cls-7" d="M134.49,86.54s-6,10.77-26.78,13.46-27.5-12.5-46.32-11.16-30.58,2.69-28.23-7.31,21-10.39,21-10.39S86.91,62.89,134.49,86.54Z"/><path class="cls-9" d="M90.52,61.79s1.9-.21,2.33-1a1.22,1.22,0,0,1,1.28-.67A6.84,6.84,0,0,0,98.6,62.2s1.88,0,1.7-1.11c0,0,1.76-.32,1.64-1.48,0,0,1.5-.5,1.14-1.56,0,0,1.25-.72.74-1.77,0,0,2.68-1.19,1.41-3.72a12.22,12.22,0,0,1-1.37-3.61,3.17,3.17,0,0,0-.4,2.6c.33,1.76,0,2.5-.55,2.76s-2.64-.71-3.14-1.49-3.28-2.38-3.38.71a2.33,2.33,0,0,1-.84,1.87,3.37,3.37,0,0,0-.15-2.77,23.73,23.73,0,0,1,4.65-8.45s0-1.73-2-1.31c0,0-.42-2.52-1.66-1.88a10.57,10.57,0,0,0-.76-1.12,1.11,1.11,0,0,1-.21-.77Z"/><path class="cls-9" d="M90.66,61.82S89,60.77,89,59.82a1.31,1.31,0,0,0-.89-1.19,6.59,6.59,0,0,1-4.9-.12s-1.69-.87-1.09-1.78c0,0-1.46-1.09-.88-2.08,0,0-1.16-1.13-.4-1.93,0,0-.84-1.22,0-1.94,0,0-1.94-2.3.22-4a11.4,11.4,0,0,0,2.69-2.64,3.17,3.17,0,0,1-.68,2.53c-1,1.44-1,2.25-.62,2.74s2.67.56,3.43.08,3.92-.66,2.77,2.18a2.38,2.38,0,0,0,0,2.07,3.27,3.27,0,0,1,1.25-2.43,24.67,24.67,0,0,0-.8-9.75s.73-1.54,2.37-.25c0,0,1.4-2.09,2.26-.94a9.77,9.77,0,0,1,1.13-.67,1,1,0,0,0,.5-.6Z"/><path class="cls-10" d="M90.57,61.74s3.79-1.14,5.38,1.14c0,0,1.14,1.12,1.45,1.34L97,67.05s-2.16-2.56-3.26-2.83S90.61,64,90,64.68c0,0-1.73-2.11-3.61-2.06a8.83,8.83,0,0,0-3.6,1l.88-3a5,5,0,0,0,1.41-.42A6,6,0,0,1,90.57,61.74Z"/></g></svg>