<svg xmlns="http://www.w3.org/2000/svg" viewBox="0 0 200 200"><defs><style>.cls-1{fill:#fff;}.cls-2{fill:#f2d4c9;stroke:#c4745d;}.cls-2,.cls-5,.cls-7{stroke-miterlimit:10;}.cls-2,.cls-7{stroke-width:2px;}.cls-3{fill:#cc8940;}.cls-4{fill:#ce5959;}.cls-5{fill:none;stroke:#000;stroke-linecap:round;stroke-width:5px;}.cls-6{fill:#201100;}.cls-7{fill:#82a1bc;stroke:#6d8291;}.cls-8{fill:#f4eff2;}.cls-9{fill:#e29e38;}.cls-10{fill:#d5d5d5;}</style></defs><title>menu-sma</title><g id="Informasi_Lomba" data-name="Informasi Lomba"><circle class="cls-1" cx="100" cy="100.92" r="99"/><path class="cls-2" d="M148,83.71l11,46.91a43.54,43.54,0,0,1,.18,20.42c-1.6,7.52-6,16.36-13.93,19.74-16.48,7.06-65.65,1.53-65.65,1.53S59.48,169.68,57.12,150s-2.93-20.4-2.93-20.4-22.5.17-25.3-22.66c-2.06-16.77,16.48-17.07,21.19-8.53,0,0,4.89-63.63,66.2-49.14C129.92,52.46,144.78,70.06,148,83.71Z"/><path class="cls-3" d="M126.29,122.42s8.23,10,2.1,13.66c-5.93,3.52-8.09-.59-8.38-3.79C119.63,128,119.23,115.36,126.29,122.42Z"/><path class="cls-4" d="M133.19,142.37s-6.91,2.95-24.42,1.39C108.77,143.76,126.57,161,133.19,142.37Z"/><line class="cls-5" x1="139.73" y1="91.97" x2="128.3" y2="95.51"/><line class="cls-5" x1="102.87" y1="97.72" x2="86.79" y2="96.47"/><path d="M66.31,43.07s28.41-22.28,61.49-1.39,19.68,43.4,19.68,43.4-3.61-9.28-9.32-12.77c0,0,1.75,8.94.35,11.84,0,0-3.14-7.54-12.93-10.91,0,0,4.89,9.63.93,13.23,0,0-5.94-9.17-12.69-10.1,0,0,3,5.57.7,10.56,0,0-15.53-25.15-29.35-12,0,0-23.86-14-21.71,33.77l-9.75,2.18S52.1,92.59,40.15,93.05C40.15,93.05,32.07,47.1,66.31,43.07Z"/><ellipse class="cls-6" cx="133.12" cy="112.43" rx="5.28" ry="4.91" transform="translate(-31.58 55.53) rotate(-21.12)"/><ellipse class="cls-6" cx="100.95" cy="114.13" rx="4.91" ry="5.28" transform="translate(-41.89 167.16) rotate(-68.88)"/><path class="cls-7" d="M39,88.52l23.18-1.9a20.3,20.3,0,0,0,8.26-2.51C80,78.74,108.34,65,148.28,63.54c0,0-11.35-36.6-43.7-35.39C64.23,29.66,38.65,40.53,39,88.52Z"/><path class="cls-8" d="M68.42,85.4S60.87,49.76,91.55,29.78c0,0,39.14-12.44,55.93,33C147.48,62.8,101.16,68.7,68.42,85.4Z"/><path class="cls-7" d="M68.24,85.29s7.22,11.08,29.12,12,27.54-14.84,47.25-15.1,32.08.08,28.75-9.71-22.77-8.59-22.77-8.59S115.71,57.58,68.24,85.29Z"/><path class="cls-9" d="M111.91,57.62s-2,0-2.52-.84a1.31,1.31,0,0,0-1.39-.56,7.19,7.19,0,0,1-4.47,2.5s-2,.14-1.87-1c0,0-1.86-.17-1.83-1.34,0,0-1.61-.37-1.32-1.46,0,0-1.37-.61-.93-1.71,0,0-2.89-1-1.8-3.6a11.87,11.87,0,0,0,1.11-3.72,3.09,3.09,0,0,1,.65,2.56c-.18,1.78.2,2.5.81,2.71s2.69-.93,3.13-1.76,3.2-2.66,3.59.42a2.3,2.3,0,0,0,1,1.8,3.26,3.26,0,0,1-.09-2.78,23.66,23.66,0,0,0-5.59-8.05s-.11-1.73,2-1.48c0,0,.22-2.56,1.56-2a10.49,10.49,0,0,1,.69-1.18,1.07,1.07,0,0,0,.15-.79Z"/><path class="cls-9" d="M111.76,57.67s1.6-1.19,1.58-2.15a1.32,1.32,0,0,1,.82-1.26,7.16,7.16,0,0,0,5.09-.53s1.68-1,1-1.88c0,0,1.42-1.21.73-2.16,0,0,1.1-1.23.25-2,0,0,.77-1.29-.22-1.94,0,0,1.82-2.46-.59-4a11.77,11.77,0,0,1-3-2.41,3.09,3.09,0,0,0,.93,2.47c1.17,1.35,1.27,2.16.88,2.69s-2.73.79-3.57.37-4.14-.33-2.69,2.42a2.31,2.31,0,0,1,.18,2.07,3.25,3.25,0,0,0-1.52-2.33,23.78,23.78,0,0,1,0-9.82s-.9-1.48-2.49-.05c0,0-1.64-2-2.43-.75a10.39,10.39,0,0,0-1.24-.57,1.07,1.07,0,0,1-.58-.56Z"/><path class="cls-10" d="M111.85,57.57s-4.05-.82-5.5,1.6c0,0-1.09,1.22-1.39,1.47l.65,2.8s2-2.75,3.14-3.1,3.26-.49,3.93.14c0,0,1.61-2.26,3.58-2.37a9.55,9.55,0,0,1,3.84.7l-1.18-2.9a5.37,5.37,0,0,1-1.51-.3A6.46,6.46,0,0,0,111.85,57.57Z"/></g></svg>