<svg xmlns="http://www.w3.org/2000/svg" viewBox="0 0 200 200"><defs><style>.cls-1{fill:#fff;}.cls-2{fill:#fcdede;stroke:#c4745d;}.cls-2,.cls-6{stroke-miterlimit:10;stroke-width:2px;}.cls-3{fill:#cc8940;}.cls-4{fill:#201100;}.cls-5{fill:#ce5959;}.cls-6{fill:#231f20;stroke:#000;}</style></defs><title>menu-diskus</title><g id="Informasi_Lomba" data-name="Informasi Lomba"><circle class="cls-1" cx="100" cy="101.5" r="98"/><path class="cls-2" d="M152.39,81.92l2.76,40.19c.74,7.81.43,16.63-2.09,24.07-2.61,7.73-11.28,16.58-25.6,23.24-16.6,7.72-35,1.07-35,1.07s-30.9-10-35-30.66A196.08,196.08,0,0,0,52,118.39S29.4,115.72,29.63,91.28c.17-18,18.83-15.91,22.43-6.31,0,0,13.39-66.5,73.08-43.43C138.42,46.67,151,67.12,152.39,81.92Z"/><path class="cls-3" d="M125.45,120s6.93,11.62.29,14.68c-6.43,3-8.06-1.65-7.92-5.06C118,125.1,119.29,111.67,125.45,120Z"/><path d="M146.32,96.45s-4.49-9.38-17.94-.75Z"/><path d="M86.58,95.18s5.05-9.7,19.88-1.72Z"/><path d="M68.74,31.16S93.07,10.31,132.12,35C166.75,57,160.86,84.72,160.86,84.72s-1.12,17.68,4.2,16.87c0,0-5.49,2.15-6.66-1.34,0,0-1.67,6.35,1.09,8.06s-4.43.68-5.7-2.08c0,0-.87-22-5.3-22.25C118.59,82.18,83.31,64.33,77,58.78c0,0,1.4,27.56-28.66,42.68,0,0,1.64-7.62,1.09-11.15a18.24,18.24,0,0,1-13.61,7s4.81-3.73,4.06-7a17.87,17.87,0,0,1-11.55.77s3.81-7.22,3.83-14C32.24,61.22,45.93,27.58,68.74,31.16Z"/><path class="cls-4" d="M129.23,113.55c.68,2.42,3.76,3.69,6.88,2.83s5.1-3.52,4.42-5.94-3.76-3.69-6.88-2.83S128.55,111.13,129.23,113.55Z"/><path class="cls-4" d="M94.81,111.12c-.28,2.5,2.1,4.83,5.31,5.21s6-1.34,6.33-3.84-2.1-4.83-5.31-5.21S95.1,108.62,94.81,111.12Z"/><path class="cls-5" d="M128.29,143a8.13,8.13,0,0,1-3.53,2.14c-4.89,1.16-18.29.57-20.43-1.61,0,0,1.07,3.52,2,5.95a4,4,0,0,0,3.27,2.49,50.69,50.69,0,0,0,13.67-.14,5.48,5.48,0,0,0,4.22-3.7A19.32,19.32,0,0,0,128.29,143Z"/><path class="cls-6" d="M125.52,107.56s-5.83-4.85-13.82.34c0,0,.46-3.64-1.66-4.8,0,0,13.82,1.81,16.73.21C126.78,103.3,124.91,104.38,125.52,107.56Z"/><path class="cls-6" d="M130.57,120.27c-5.09-2.11-6.4-10-6-13.6s4.79-4.59,4.79-4.59c7.25-1.45,23.58-1.16,27.7-1a20.35,20.35,0,0,1,5.64.77l-.08,2.06a6.64,6.64,0,0,1-2,.87c1.66,3.09.79,9.17-2.2,13.75s-15.56,4.07-15.56,4.07A35.94,35.94,0,0,1,130.57,120.27Zm1.62-16.55c-3.65.24-5.8,1.27-6,3.58a14.07,14.07,0,0,0,2.66,9.53c3.13,4.69,22,6.38,27.46,1.38s2.65-13.88,2.65-13.88C158,102.18,135.84,103.48,132.19,103.72Z"/><path class="cls-6" d="M92.69,121.33s-12.59-.22-15.3-5S74.16,105.49,76,102.5a6.64,6.64,0,0,1-2-1l0-2.06A20.35,20.35,0,0,1,79.75,99c4.12.06,20.44.71,27.59,2.58,0,0,4.36,1.22,4.51,4.86s-1.61,11.41-6.82,13.22A35.94,35.94,0,0,1,92.69,121.33Zm-15-19.22s-3.36,8.7,1.84,14,24.1,4.72,27.5.22a14.07,14.07,0,0,0,3.21-9.36c-.08-2.32-2.17-3.47-5.81-3.92S78.72,100,77.64,102.1Z"/></g></svg>