<svg xmlns="http://www.w3.org/2000/svg" xmlns:xlink="http://www.w3.org/1999/xlink" viewBox="0 0 385 153"><defs><style>.cls-1{fill:none;}.cls-2{fill:#fff;}.cls-3{clip-path:url(#clip-path);}.cls-4{fill:url(#linear-gradient);}.cls-5{fill:#f6921e;}</style><clipPath id="clip-path"><path class="cls-1" d="M49.53,83.38v-26a8.18,8.18,0,0,1,8.17-8.2H83.57a8.18,8.18,0,0,1,8.17,8.2v26a8.18,8.18,0,0,1-8.17,8.2H69.35c-.37,1.34-2.78,8.16-13.75,7.19,0,0,3.38-1.69,3.37-7.19H57.7a8.18,8.18,0,0,1-8.17-8.2M47.37,27.31A18.91,18.91,0,0,0,28.46,46.22V93.64a18.91,18.91,0,0,0,18.91,18.91H94.78a19,19,0,0,0,3.05-.25c3.76,3.55,15.86,14.91,15.86,14.91v-81A18.91,18.91,0,0,0,94.78,27.31Z"/></clipPath><linearGradient id="linear-gradient" x1="1690.89" y1="-2186.55" x2="1691.06" y2="-2186.55" gradientTransform="matrix(-801.26, 0, 0, 801.26, 1354983.65, 1752059.19)" gradientUnits="userSpaceOnUse"><stop offset="0" stop-color="#fff23a"/><stop offset="0.04" stop-color="#fee62d"/><stop offset="0.12" stop-color="#fed41a"/><stop offset="0.2" stop-color="#fdc90f"/><stop offset="0.28" stop-color="#fdc60b"/><stop offset="0.67" stop-color="#f28f3f"/><stop offset="0.89" stop-color="#ed693c"/><stop offset="1" stop-color="#e83e39"/></linearGradient></defs><title>qu-pres</title><g id="Berita_Terbaru" data-name="Berita Terbaru"><g id="Layer_3" data-name="Layer 3"><rect class="cls-2" y="2.76" width="385" height="149" rx="25.15" ry="25.15"/><g class="cls-3"><rect class="cls-4" x="20.94" y="34.42" width="100.27" height="85.67" transform="translate(-6.49 148) rotate(-89.75)"/></g><path class="cls-5" d="M160.29,52.21V80.5c0,5.41.16,9.88.34,13.34H149.4l-.6-5.88h-.27a14.75,14.75,0,0,1-13,6.81c-8.46,0-14.62-5.29-14.62-18.09V52.21h13V74.59c0,6.09,2,9.74,6.52,9.74a6.89,6.89,0,0,0,6.43-4.55,7.09,7.09,0,0,0,.47-2.75V52.21h13Zm28.34-16.14c8,0,13.7,1.55,17.54,4.63A16.59,16.59,0,0,1,212.25,54c0,5.62-1.82,10.41-5.23,13.57-4.43,4.16-11,6.08-18.62,6.08a30,30,0,0,1-4.42-.29V93.85H171.13V37.28A107,107,0,0,1,188.63,36.07ZM184,63.28a19.62,19.62,0,0,0,4.3.34c6.88,0,11.13-3.48,11.13-9.29,0-5.28-3.61-8.42-10.15-8.42a25.7,25.7,0,0,0-5.29.43Zm35.34,30.57V65.94c0-6.11-.11-10.14-.34-13.72H230.1l.47,7.71h.32c2.14-6.09,7.2-8.64,11.24-8.64a11.14,11.14,0,0,1,2.77.24V63.69a16,16,0,0,0-3.5-.36c-4.75,0-8,2.52-8.87,6.57a15.4,15.4,0,0,0-.24,2.88V93.85h-13Zm41.62-16.65c.39,5.37,5.69,7.92,11.73,7.92a34.66,34.66,0,0,0,11.46-1.76l1.75,8.76a40.37,40.37,0,0,1-15.08,2.63c-14.1,0-22.2-8.21-22.2-21.19,0-10.58,6.6-22.28,21-22.28,13.49,0,18.59,10.49,18.59,20.79a24.85,24.85,0,0,1-.46,5.13Zm15.19-8.87c0-3.12-1.37-8.44-7.26-8.44-5.47,0-7.68,5-8,8.44Zm17.35,23.49,2.34-9.24a25.17,25.17,0,0,0,11.1,3.1c3.91,0,5.58-1.32,5.58-3.44s-1.33-3.2-6.11-4.81c-8.66-2.85-11.92-7.56-11.87-12.44,0-7.82,6.6-13.69,16.93-13.69a27.56,27.56,0,0,1,11.73,2.43l-2.25,8.91a21.21,21.21,0,0,0-9-2.35c-3.16,0-5,1.26-5,3.35s1.65,3,6.75,4.81c7.9,2.68,11.21,6.75,11.26,12.82,0,7.77-6.06,13.49-18,13.49a29.74,29.74,0,0,1-13.48-2.93Zm53.75-51.47V52.21h9.32v9.55h-9.32V76.84c0,5,1.25,7.34,5.11,7.34a17,17,0,0,0,3.85-.39l.1,9.83a27.32,27.32,0,0,1-8.39,1.11,13.52,13.52,0,0,1-9.76-3.61c-2.4-2.47-3.58-6.43-3.58-12.34v-17H329V52.21h5.53V43.27Z"/><path class="cls-5" d="M143.17,119.85c-2.24-.52-4.66-1.2-6.46-1.73a3.41,3.41,0,0,0-1-.24c-4.22-.1-7.61-3.2-7.61-8.71,0-5.73,3.42-9.09,7.75-9.09s7.48,3.39,7.48,8.73c0,4.75-2.2,7.61-5.43,8.63v.1c1.94.45,4.06.93,5.6,1.18Zm-1.06-11c0-3.63-2-7.79-6.25-7.79-4.42,0-6.45,4-6.45,8.05s2.28,7.71,6.3,7.71S142.11,113.15,142.11,108.89ZM161,114.6c0,1.09,0,2.06.1,3H160l-.08-2.18h-.05a4.75,4.75,0,0,1-4.21,2.46c-1.56,0-4.17-.77-4.17-5.41v-7.15h1.21v6.9c0,2.68.82,4.6,3.26,4.6a4,4,0,0,0,3.62-2.49,4.34,4.34,0,0,0,.24-1.36v-7.64H161Zm19.73-3.25c0,4.58-3.14,6.53-5.87,6.53-3.18,0-5.63-2.47-5.63-6.32,0-4.2,2.75-6.51,5.8-6.51C178.4,105,180.71,107.59,180.71,111.35Zm-10.27.15c0,3.07,2,5.37,4.48,5.37s4.56-2.32,4.56-5.47c0-2.24-1.27-5.35-4.5-5.35S170.44,108.86,170.44,111.5Zm20.19-9.73v3.55h3.5v1h-3.5v8c0,1.56.49,2.54,1.8,2.54a4.28,4.28,0,0,0,1.39-.19l.15.94a4.38,4.38,0,0,1-1.69.29,2.61,2.61,0,0,1-2.12-.87,4.49,4.49,0,0,1-.75-2.93v-7.76h-2.07v-1h2.07v-3.16ZM202,111.35c0,3.92,2.13,5.47,4.67,5.47a7.12,7.12,0,0,0,3.41-.7l.31,1a8.26,8.26,0,0,1-3.87.79c-3.53,0-5.72-2.57-5.72-6.16,0-4.1,2.35-6.66,5.52-6.66,4,0,4.78,3.78,4.78,5.55a4.19,4.19,0,0,1,0,.75Zm7.82-1c0-1.71-.68-4.32-3.67-4.32-2.7,0-3.87,2.43-4.09,4.32Zm9,5.61a5.31,5.31,0,0,0,2.76.85c1.93,0,2.85-1.06,2.85-2.34s-.81-2.07-2.58-2.77c-2-.78-3.11-1.87-3.11-3.36,0-1.77,1.39-3.32,3.78-3.32a4.85,4.85,0,0,1,2.72.78l-.49,1a4.09,4.09,0,0,0-2.43-.74,2.16,2.16,0,0,0-2.39,2.12c0,1.28.87,1.83,2.54,2.52,2,.79,3.16,1.77,3.16,3.63,0,2.1-1.63,3.52-4.14,3.52a6,6,0,0,1-3.12-.85Zm25.88-15.42a20.09,20.09,0,0,1,3.68-.33,6.4,6.4,0,0,1,4.56,1.46,4.53,4.53,0,0,1,1.32,3.38,4.86,4.86,0,0,1-1.2,3.45,6.6,6.6,0,0,1-5.06,1.92,7.37,7.37,0,0,1-2.09-.2v7.37H244.7Zm1.21,8.6a7.68,7.68,0,0,0,2.19.25c3.09,0,4.93-1.5,4.93-4.23s-2-3.93-4.7-3.93a12.62,12.62,0,0,0-2.42.2Zm16.17-.15c0-1.23,0-2.49-.1-3.68h1.13l.05,2.49h.07a3.79,3.79,0,0,1,3.48-2.77,2.09,2.09,0,0,1,.5.06v1.16a2.81,2.81,0,0,0-.59,0c-1.68,0-2.89,1.46-3.22,3.43a6.79,6.79,0,0,0-.1,1.16v6.78h-1.21Zm12.57,2.34c0,3.92,2.13,5.47,4.67,5.47a7.12,7.12,0,0,0,3.41-.7l.31,1a8.26,8.26,0,0,1-3.87.79c-3.53,0-5.72-2.57-5.72-6.16,0-4.1,2.35-6.66,5.52-6.66,4,0,4.78,3.78,4.78,5.55a4.19,4.19,0,0,1,0,.75Zm7.82-1c0-1.71-.68-4.32-3.67-4.32-2.7,0-3.87,2.43-4.09,4.32Zm9,5.61a5.31,5.31,0,0,0,2.76.85c1.93,0,2.85-1.06,2.85-2.34s-.81-2.07-2.58-2.77c-2-.78-3.11-1.87-3.11-3.36,0-1.77,1.39-3.32,3.78-3.32a4.85,4.85,0,0,1,2.72.78l-.49,1a4.09,4.09,0,0,0-2.43-.74,2.16,2.16,0,0,0-2.39,2.12c0,1.28.87,1.83,2.54,2.52,2,.79,3.16,1.77,3.16,3.63,0,2.1-1.63,3.52-4.14,3.52A6,6,0,0,1,291,117Zm16.84-14.22v3.55h3.5v1h-3.5v8c0,1.56.49,2.54,1.8,2.54a4.28,4.28,0,0,0,1.39-.19l.15.94a4.38,4.38,0,0,1-1.69.29,2.61,2.61,0,0,1-2.12-.87,4.49,4.49,0,0,1-.75-2.93v-7.76H305v-1h2.07v-3.16Zm18,15.83-.18-1.76h-.06a4.64,4.64,0,0,1-3.91,2,3.35,3.35,0,0,1-3.61-3.38c0-2.83,2.49-4.54,7.49-4.49v-.33c0-1.21-.24-3.64-3.14-3.62a5.39,5.39,0,0,0-3.08.91l-.38-.88a6.57,6.57,0,0,1,3.6-1.06c3.54,0,4.22,2.66,4.22,4.85v4.79a20,20,0,0,0,.18,2.91Zm-.27-6.56c-2.67-.08-6.2.33-6.2,3.27a2.34,2.34,0,0,0,2.44,2.56,3.69,3.69,0,0,0,3.63-2.46,2.34,2.34,0,0,0,.13-.74Zm9.8,4.95a5.31,5.31,0,0,0,2.76.85c1.93,0,2.85-1.06,2.85-2.34s-.81-2.07-2.58-2.77c-2-.78-3.11-1.87-3.11-3.36,0-1.77,1.39-3.32,3.78-3.32a4.85,4.85,0,0,1,2.72.78l-.49,1a4.09,4.09,0,0,0-2.43-.74A2.16,2.16,0,0,0,337,108.2c0,1.28.87,1.83,2.54,2.52,2,.79,3.16,1.77,3.16,3.63,0,2.1-1.63,3.52-4.14,3.52a6,6,0,0,1-3.12-.85Zm16.75-14.17a1,1,0,1,1-2,0,1,1,0,0,1,1-1.06A1,1,0,0,1,352.61,101.82ZM351,117.6V105.33h1.21V117.6Z"/></g></g></svg>